<svg xmlns="http://www.w3.org/2000/svg" width="81.162" height="95.504" viewBox="0 0 81.162 95.504">
  <g id="people-" transform="translate(-36.762)">
    <g id="Group_9725" data-name="Group 9725" transform="translate(36.762)">
      <path id="XMLID_2038_" d="M216.466,26.665h.039c7.881-.078,6.73-10.612,6.73-10.612-.312-7.042-6.184-6.983-6.769-6.964-.585-.02-6.457-.078-6.788,6.944,0,0-1.151,10.534,6.749,10.612h0C216.427,26.665,216.447,26.665,216.466,26.665Z" transform="translate(-175.901 -7.315)" fill="#a7a9ac"/>
      <path id="XMLID_2039_" d="M185.4,137.322l5.091-7.022A33.805,33.805,0,0,1,197,133.909a13.7,13.7,0,0,1,1.795,1.58c1.619,1.619.936,11,0,14.435a48.575,48.575,0,0,1-3.687,8.368,13.219,13.219,0,0,0-1.034,3.94l-3.511,34.429a2.153,2.153,0,0,1-2.126,1.931h-6.086a2.138,2.138,0,0,1-2.126-1.931l-3.511-34.429a13.068,13.068,0,0,0-1.034-3.94A47.822,47.822,0,0,1,172,149.924c-.936-3.433-1.619-12.816,0-14.435a13.7,13.7,0,0,1,1.795-1.58,35.082,35.082,0,0,1,6.515-3.609Z" transform="translate(-144.833 -104.883)" fill="#a7a9ac"/>
      <path id="Path_69252" data-name="Path 69252" d="M37.729,163.637a47.656,47.656,0,0,0,3.57,8.173,10.1,10.1,0,0,1,.8,3.1l3.3,32.3a3.771,3.771,0,0,0,3.765,3.394h5.7a3.771,3.771,0,0,0,3.765-3.394l3.3-32.3a10.377,10.377,0,0,1,.839-3.16,1.76,1.76,0,0,0-3.219-1.424,13.858,13.858,0,0,0-1.112,4.233l-3.3,32.3a.249.249,0,0,1-.234.215H49.2a.234.234,0,0,1-.234-.215l-3.336-32.322a14.437,14.437,0,0,0-1.112-4.233.583.583,0,0,0-.078-.156,44.471,44.471,0,0,1-3.3-7.452c-.9-3.336-1.151-10.592-.41-11.879a10.669,10.669,0,0,1,1.443-1.268,28.5,28.5,0,0,1,4.467-2.594l3.94,5.423a1.766,1.766,0,0,0,2.848,0l4.779-6.574a1.773,1.773,0,0,0-2.867-2.087l-3.355,4.6-3.316-4.584a1.77,1.77,0,0,0-2.087-.6,33.854,33.854,0,0,0-6.5,3.589,14.214,14.214,0,0,0-1.892,1.658C35.7,150.88,37.085,161.257,37.729,163.637Z" transform="translate(-36.762 -115.105)" fill="#fafafa"/>
      <path id="Path_69253" data-name="Path 69253" d="M80.968,49.394H81.3a7.408,7.408,0,0,0,5.54-2.419c2.906-3.277,2.5-8.739,2.419-9.422-.293-6.028-4.486-8.154-7.978-8.154h-.312c-3.492,0-7.666,2.146-7.978,8.154-.059.683-.488,6.145,2.419,9.422A7.412,7.412,0,0,0,80.968,49.394ZM76.521,37.866v-.117c.2-4.213,2.867-4.838,4.447-4.838h.293c1.58,0,4.252.624,4.447,4.838v.1c.137,1.248.1,4.9-1.561,6.769a3.8,3.8,0,0,1-3.024,1.229h-.039a3.864,3.864,0,0,1-3.024-1.229C76.423,42.762,76.4,39.114,76.521,37.866Z" transform="translate(-65.879 -23.665)" fill="#fafafa"/>
      <path id="Path_69254" data-name="Path 69254" d="M319.76,169.348a1.742,1.742,0,0,0-.9,2.321,10.526,10.526,0,0,1,.839,3.16l3.3,32.3a3.771,3.771,0,0,0,3.765,3.394h5.7a3.771,3.771,0,0,0,3.765-3.394l3.3-32.3a10.69,10.69,0,0,1,.8-3.1,44.8,44.8,0,0,0,3.57-8.173c.644-2.38,2.048-12.757-.449-15.254a14.218,14.218,0,0,0-1.892-1.658,33.253,33.253,0,0,0-6.5-3.589,1.737,1.737,0,0,0-2.087.6l-3.355,4.6-3.375-4.584a1.773,1.773,0,1,0-2.867,2.087l4.779,6.574a1.766,1.766,0,0,0,2.848,0l3.94-5.423a28.5,28.5,0,0,1,4.467,2.594,11.779,11.779,0,0,1,1.444,1.268c.741,1.287.488,8.544-.41,11.879a44.467,44.467,0,0,1-3.3,7.451,1.159,1.159,0,0,0-.078.156,13.856,13.856,0,0,0-1.112,4.233l-3.3,32.3a.249.249,0,0,1-.234.215h-5.7a.234.234,0,0,1-.234-.215l-3.3-32.3a14.436,14.436,0,0,0-1.112-4.233A1.744,1.744,0,0,0,319.76,169.348Z" transform="translate(-263.707 -115.041)" fill="#fafafa"/>
      <path id="Path_69255" data-name="Path 69255" d="M340.549,49.394h.332a7.412,7.412,0,0,0,5.559-2.419c2.906-3.277,2.5-8.739,2.419-9.422-.293-6.028-4.467-8.154-7.978-8.154h-.312c-3.492,0-7.666,2.146-7.978,8.154-.059.683-.488,6.145,2.419,9.422A7.408,7.408,0,0,0,340.549,49.394ZM336.1,37.866v-.117c.2-4.213,2.867-4.838,4.447-4.838h.293c1.58,0,4.252.624,4.448,4.838v.1c.137,1.248.1,4.9-1.561,6.769a3.864,3.864,0,0,1-3.023,1.229h-.039a3.864,3.864,0,0,1-3.024-1.229C336,42.762,335.984,39.114,336.1,37.866Z" transform="translate(-274.84 -23.665)" fill="#fafafa"/>
      <path id="Path_69256" data-name="Path 69256" d="M163.417,126.932c-2.633,2.633-1.151,13.616-.449,16.151a48.817,48.817,0,0,0,3.8,8.68,11.1,11.1,0,0,1,.878,3.336l3.511,34.429a3.886,3.886,0,0,0,3.9,3.511h6.067a3.93,3.93,0,0,0,3.9-3.511l3.511-34.429a10.951,10.951,0,0,1,.878-3.336,49.509,49.509,0,0,0,3.8-8.68c.683-2.536,2.185-13.518-.449-16.151a15.792,15.792,0,0,0-1.99-1.756,36.538,36.538,0,0,0-6.905-3.823,1.737,1.737,0,0,0-2.087.6l-3.726,5.052-3.667-5.052a1.77,1.77,0,0,0-2.087-.6,35.928,35.928,0,0,0-6.905,3.823A14.534,14.534,0,0,0,163.417,126.932Zm2.536,2.458a10.851,10.851,0,0,1,1.561-1.365,29.368,29.368,0,0,1,4.877-2.828l4.252,5.852a1.766,1.766,0,0,0,2.848,0l4.252-5.852a31.031,31.031,0,0,1,4.877,2.828,10.851,10.851,0,0,1,1.561,1.365c.819,1.326.566,9.149-.429,12.757a45.4,45.4,0,0,1-3.531,7.959,1.161,1.161,0,0,0-.078.156,14.822,14.822,0,0,0-1.19,4.487l-3.511,34.429a.363.363,0,0,1-.371.332H175a.363.363,0,0,1-.371-.332l-3.511-34.429a14.417,14.417,0,0,0-1.19-4.487.584.584,0,0,0-.078-.156,47.5,47.5,0,0,1-3.531-7.978C165.387,138.538,165.133,130.716,165.953,129.389Z" transform="translate(-137.501 -97.574)" fill="#fafafa"/>
      <path id="Path_69257" data-name="Path 69257" d="M208.964,21.106h.351a7.587,7.587,0,0,0,5.832-2.555c3.082-3.453,2.614-9.266,2.555-9.968C217.391,2.243,213,0,209.315,0h-.351c-3.667,0-8.076,2.243-8.388,8.583-.059.7-.527,6.5,2.555,9.948A7.7,7.7,0,0,0,208.964,21.106ZM204.107,8.914V8.8c.215-4.76,3.472-5.267,4.857-5.267h.332c1.385,0,4.643.507,4.857,5.267v.1c.137,1.346.117,5.286-1.678,7.3a4.2,4.2,0,0,1-3.316,1.346H209.1a4.26,4.26,0,0,1-3.316-1.346C203.99,14.2,203.97,10.26,204.107,8.914Z" transform="translate(-168.574 0)" fill="#fafafa"/>
    </g>
  </g>
</svg>
