<svg width="51" height="55" viewBox="0 0 51 55" fill="none" xmlns="http://www.w3.org/2000/svg">
<path fill-rule="evenodd" clip-rule="evenodd" d="M2.29167 0H48.125C48.7328 0 49.3157 0.241443 49.7455 0.671214C50.1752 1.10098 50.4167 1.68388 50.4167 2.29167V13.75C50.4167 16.1812 49.4509 18.5127 47.7318 20.2318C46.0127 21.9509 43.6811 22.9167 41.25 22.9167H41.0667C40.5692 26.338 38.9798 29.5071 36.5351 31.9518C34.0904 34.3964 30.9213 35.9859 27.5 36.4833V43.5417H22.9167V36.4833C19.4953 35.9859 16.3263 34.3964 13.8816 31.9518C11.4369 29.5071 9.84744 26.338 9.35 22.9167H9.16667C6.73552 22.9167 4.40394 21.9509 2.68485 20.2318C0.965771 18.5127 0 16.1812 0 13.75V2.29167C0 1.68388 0.241443 1.10098 0.671213 0.671214C1.10098 0.241443 1.68388 0 2.29167 0ZM4.58333 4.58333V13.75C4.58333 14.9656 5.06622 16.1314 5.92576 16.9909C6.7853 17.8504 7.95109 18.3333 9.16667 18.3333V4.58333H4.58333ZM44.4909 16.9909C45.3504 16.1314 45.8333 14.9656 45.8333 13.75V4.58333H41.25V18.3333C42.4656 18.3333 43.6314 17.8504 44.4909 16.9909ZM20.6243 45.834H29.791C41.2493 45.834 41.2493 55.0007 41.2493 55.0007H9.16602C9.16602 55.0007 9.16602 45.834 20.6243 45.834Z" fill="url(#paint0_linear)"/>
<defs>
<linearGradient id="paint0_linear" x1="-13.6382" y1="-29.7564" x2="-13.6382" y2="55.0007" gradientUnits="userSpaceOnUse">
<stop stop-color="#FFF35C"/>
<stop offset="1" stop-color="#EF7B32"/>
</linearGradient>
</defs>
</svg>