<svg xmlns="http://www.w3.org/2000/svg" width="139.62" height="92.705" viewBox="0 0 139.62 92.705">
  <g id="stars-svgrepo-com" transform="translate(0 -196.215)">
    <path id="Path_69246" data-name="Path 69246" d="M28.713,213.919l-5.485-17.7-5.484,17.7H0l14.357,10.941L8.872,242.568l14.356-10.946,14.357,10.946L32.1,224.861l14.357-10.941Z" transform="translate(0 0)" fill="#ced436"/>
    <path id="Path_69247" data-name="Path 69247" d="M126.765,213.919l-5.484-17.7-5.485,17.7H98.052l14.357,10.941-5.484,17.707,14.357-10.946,14.357,10.946-5.485-17.707,14.357-10.941Z" transform="translate(-51.471 0)" fill="#ced436"/>
    <path id="Path_69248" data-name="Path 69248" d="M224.817,213.919l-5.484-17.7-5.484,17.7H196.1l14.357,10.941-5.484,17.707,14.357-10.946,14.357,10.946-5.484-17.707,14.356-10.941Z" transform="translate(-102.941 0)" fill="#ced436"/>
    <path id="Path_69249" data-name="Path 69249" d="M322.87,213.919l-5.484-17.7-5.484,17.7H294.157l14.357,10.941-5.485,17.707,14.357-10.946,14.357,10.946-5.484-17.707,14.357-10.941Z" transform="translate(-270.805 46.352)" fill="#ced436"/>
    <path id="Path_69250" data-name="Path 69250" d="M415.438,196.215l-5.485,17.7H392.209l14.357,10.941-5.484,17.707,14.357-10.946,14.356,10.946-5.484-17.707,14.357-10.941H420.922Z" transform="translate(-322.275 46.352)"/>
    <path id="Path_69251" data-name="Path 69251" d="M415.438,196.215l-5.485,17.7H392.209l14.357,10.941-5.484,17.707,14.357-10.946V196.215Z" transform="translate(-322.275 46.352)" fill="#ced436"/>
  </g>
</svg>
