<svg xmlns="http://www.w3.org/2000/svg" width="124" height="124" viewBox="0 0 124 124">
  <g id="Group_9724" data-name="Group 9724" transform="translate(-251.5 -4063.416)">
    <g id="Path_69242" data-name="Path 69242" transform="translate(251.5 4063.416)" fill="#363535">
      <path d="M 62 123.5 C 53.69733428955078 123.5 45.64328384399414 121.8740158081055 38.06158447265625 118.667236328125 C 34.41756820678711 117.1259307861328 30.90286636352539 115.2182159423828 27.61511611938477 112.9970703125 C 24.35848426818848 110.7969131469727 21.29606628417969 108.2701797485352 18.5129337310791 105.4870681762695 C 15.72981643676758 102.7039337158203 13.20308303833008 99.64151763916016 11.00293350219727 96.38488006591797 C 8.781783103942871 93.09712982177734 6.874066829681396 89.58243560791016 5.332766532897949 85.93841552734375 C 2.125983238220215 78.35671997070312 0.5 70.30266571044922 0.5 62 C 0.5 53.69733428955078 2.125983238220215 45.64328384399414 5.332766532897949 38.06158447265625 C 6.874066829681396 34.41756820678711 8.781783103942871 30.90286636352539 11.00293350219727 27.61511611938477 C 13.20308303833008 24.35848426818848 15.72981643676758 21.29606628417969 18.5129337310791 18.5129337310791 C 21.29606628417969 15.72981643676758 24.35848426818848 13.20308303833008 27.61511611938477 11.00293350219727 C 30.90286636352539 8.781783103942871 34.41756820678711 6.874066829681396 38.06158447265625 5.332766532897949 C 45.64328384399414 2.125983238220215 53.69733428955078 0.5 62 0.5 C 70.30266571044922 0.5 78.35671997070312 2.125983238220215 85.93841552734375 5.332766532897949 C 89.58243560791016 6.874066829681396 93.09712982177734 8.781783103942871 96.38488006591797 11.00293350219727 C 99.64151763916016 13.20308303833008 102.7039337158203 15.72981643676758 105.4870681762695 18.5129337310791 C 108.2701797485352 21.29606628417969 110.7969131469727 24.35848426818848 112.9970703125 27.61511611938477 C 115.2182159423828 30.90286636352539 117.1259307861328 34.41756820678711 118.667236328125 38.06158447265625 C 121.8740158081055 45.64328384399414 123.5 53.69733428955078 123.5 62 C 123.5 70.30266571044922 121.8740158081055 78.35671997070312 118.667236328125 85.93841552734375 C 117.1259307861328 89.58243560791016 115.2182159423828 93.09712982177734 112.9970703125 96.38488006591797 C 110.7969131469727 99.64151763916016 108.2701797485352 102.7039337158203 105.4870681762695 105.4870681762695 C 102.7039337158203 108.2701797485352 99.64151763916016 110.7969131469727 96.38488006591797 112.9970703125 C 93.09712982177734 115.2182159423828 89.58243560791016 117.1259307861328 85.93841552734375 118.667236328125 C 78.35671997070312 121.8740158081055 70.30266571044922 123.5 62 123.5 Z" stroke="none"/>
      <path d="M 62 1 C 53.76461791992188 1 45.77610015869141 2.612686157226562 38.25634765625 5.793266296386719 C 34.64206695556641 7.321983337402344 31.15601348876953 9.214164733886719 27.89501953125 11.41725158691406 C 24.66474914550781 13.59958648681641 21.62711334228516 16.10586547851562 18.86648559570312 18.86648559570312 C 16.10586547851562 21.62711334228516 13.59958648681641 24.66474914550781 11.41725158691406 27.89501953125 C 9.214164733886719 31.15601348876953 7.321983337402344 34.64206695556641 5.793266296386719 38.25634765625 C 2.612686157226562 45.77610015869141 1 53.76461791992188 1 62 C 1 70.23538208007812 2.612686157226562 78.22389984130859 5.793266296386719 85.74365234375 C 7.321983337402344 89.35793304443359 9.214164733886719 92.84397888183594 11.41725158691406 96.10498046875 C 13.59958648681641 99.33525085449219 16.10586547851562 102.3728790283203 18.86648559570312 105.1335144042969 C 21.62711334228516 107.8941345214844 24.66474914550781 110.4004135131836 27.89501953125 112.5827484130859 C 31.15601348876953 114.7858352661133 34.64206695556641 116.6780166625977 38.25634765625 118.2067337036133 C 45.77610015869141 121.3873138427734 53.76461791992188 123 62 123 C 70.23538208007812 123 78.22389984130859 121.3873138427734 85.74365234375 118.2067337036133 C 89.35793304443359 116.6780166625977 92.84397888183594 114.7858352661133 96.10498046875 112.5827484130859 C 99.33525085449219 110.4004135131836 102.3728790283203 107.8941345214844 105.1335144042969 105.1335144042969 C 107.8941345214844 102.3728790283203 110.4004135131836 99.33525085449219 112.5827484130859 96.10498046875 C 114.7858352661133 92.84397888183594 116.6780166625977 89.35793304443359 118.2067337036133 85.74365234375 C 121.3873138427734 78.22389984130859 123 70.23538208007812 123 62 C 123 53.76461791992188 121.3873138427734 45.77610015869141 118.2067337036133 38.25634765625 C 116.6780166625977 34.64206695556641 114.7858352661133 31.15601348876953 112.5827484130859 27.89501953125 C 110.4004135131836 24.66474914550781 107.8941345214844 21.62711334228516 105.1335144042969 18.86648559570312 C 102.3728790283203 16.10586547851562 99.33525085449219 13.59958648681641 96.10498046875 11.41725158691406 C 92.84397888183594 9.214164733886719 89.35793304443359 7.321983337402344 85.74365234375 5.793266296386719 C 78.22389984130859 2.612686157226562 70.23538208007812 1 62 1 M 62 0 C 96.24165344238281 0 124 27.75834655761719 124 62 C 124 96.24165344238281 96.24165344238281 124 62 124 C 27.75834655761719 124 0 96.24165344238281 0 62 C 0 27.75834655761719 27.75834655761719 0 62 0 Z" stroke="none" fill="#707070"/>
    </g>
    <g id="Group_9691" data-name="Group 9691" transform="translate(-11658.98 26355.625)">
      <path id="Path_21490" data-name="Path 21490" d="M189.328,0H172.37l-2.791,22.792,2.791,22.792h16.958Z" transform="translate(11799.206 -22253)" fill="#9bd6ff"/>
      <rect id="Rectangle_5442" data-name="Rectangle 5442" width="16.958" height="45.584" transform="translate(11954.618 -22253)" fill="#c4eaff"/>
      <g id="Group_8332" data-name="Group 8332" transform="translate(11970.646 -22246)">
        <path id="Path_21491" data-name="Path 21491" d="M203.978,81.426H191.407l-.93-1.4.93-1.4h12.571Z" transform="translate(-190.477 -78.635)" fill="#2d64bc"/>
        <path id="Path_21492" data-name="Path 21492" d="M203.978,135.323H191.407l-.93-1.4.93-1.4h12.571Z" transform="translate(-190.477 -127.734)" fill="#2d64bc"/>
        <path id="Path_21493" data-name="Path 21493" d="M203.978,189.221H191.407l-.93-1.4.93-1.4h12.571Z" transform="translate(-190.477 -176.833)" fill="#2d64bc"/>
        <path id="Path_21494" data-name="Path 21494" d="M203.978,243.118H191.407l-.93-1.4.93-1.4h12.571Z" transform="translate(-190.477 -225.931)" fill="#2d64bc"/>
        <path id="Path_21495" data-name="Path 21495" d="M203.978,297.015H191.407l-.93-1.4.93-1.4h12.571Z" transform="translate(-190.477 -275.03)" fill="#2d64bc"/>
      </g>
      <g id="Group_8333" data-name="Group 8333" transform="translate(11959.004 -22246)">
        <rect id="Rectangle_5443" data-name="Rectangle 5443" width="4.051" height="2.791" transform="translate(8.52 4.798)" fill="#6499f3"/>
        <rect id="Rectangle_5444" data-name="Rectangle 5444" width="5.641" height="2.791" transform="translate(0 4.798)" fill="#6499f3"/>
        <rect id="Rectangle_5445" data-name="Rectangle 5445" width="12.571" height="2.791" transform="translate(0 9.597)" fill="#6499f3"/>
        <rect id="Rectangle_5446" data-name="Rectangle 5446" width="12.571" height="2.791" transform="translate(0 14.395)" fill="#6499f3"/>
        <rect id="Rectangle_5447" data-name="Rectangle 5447" width="12.571" height="2.791" transform="translate(0 19.193)" fill="#6499f3"/>
        <rect id="Rectangle_5448" data-name="Rectangle 5448" width="12.571" height="2.791" fill="#6499f3"/>
      </g>
      <path id="Path_21496" data-name="Path 21496" d="M196.317,350.912h-5.354l-.93-1.4.93-1.4h5.354Z" transform="translate(11780.573 -22570.129)" fill="#2d64bc"/>
      <rect id="Rectangle_5449" data-name="Rectangle 5449" width="12.571" height="2.791" transform="translate(11959.004 -22222.008)" fill="#6499f3"/>
      <path id="Path_21497" data-name="Path 21497" d="M257.848,146.479l-18.131,19.348h2.668l17.405-17.405Z" transform="translate(11735.313 -22386.438)" fill="#ff8e00"/>
      <path id="Path_21498" data-name="Path 21498" d="M435.94,111.579l-.726-.726h0l2.668,2.668,2.685-2.685a1.887,1.887,0,0,0,0-2.668Z" transform="translate(11557.222 -22351.537)" fill="#e04c00"/>
      <path id="Path_21499" data-name="Path 21499" d="M440.567,102.513a1.887,1.887,0,0,0-2.668,0l-2.685,2.685,1.334,1.334Z" transform="translate(11557.222 -22345.883)" fill="#ff7d3c"/>
      <path id="Path_21500" data-name="Path 21500" d="M257.122,138.327l-17.405,17.405V158.4h0l18.739-18.739Z" transform="translate(11735.313 -22379.014)" fill="#ffba00"/>
    </g>
  </g>
</svg>
