<svg xmlns="http://www.w3.org/2000/svg" width="124" height="124" viewBox="0 0 124 124">
  <g id="Group_10762" data-name="Group 10762" transform="translate(-1546.5 -3757)">
    <g id="Path_69241" data-name="Path 69241" transform="translate(1546.5 3757)" fill="#363535">
      <path d="M 62 123.5 C 53.69733428955078 123.5 45.64328384399414 121.8740158081055 38.06158447265625 118.667236328125 C 34.41756820678711 117.1259307861328 30.90286636352539 115.2182159423828 27.61511611938477 112.9970703125 C 24.35848426818848 110.7969131469727 21.29606628417969 108.2701797485352 18.5129337310791 105.4870681762695 C 15.72981643676758 102.7039337158203 13.20308303833008 99.64151763916016 11.00293350219727 96.38488006591797 C 8.781783103942871 93.09712982177734 6.874066829681396 89.58243560791016 5.332766532897949 85.93841552734375 C 2.125983238220215 78.35671997070312 0.5 70.30266571044922 0.5 62 C 0.5 53.69733428955078 2.125983238220215 45.64328384399414 5.332766532897949 38.06158447265625 C 6.874066829681396 34.41756820678711 8.781783103942871 30.90286636352539 11.00293350219727 27.61511611938477 C 13.20308303833008 24.35848426818848 15.72981643676758 21.29606628417969 18.5129337310791 18.5129337310791 C 21.29606628417969 15.72981643676758 24.35848426818848 13.20308303833008 27.61511611938477 11.00293350219727 C 30.90286636352539 8.781783103942871 34.41756820678711 6.874066829681396 38.06158447265625 5.332766532897949 C 45.64328384399414 2.125983238220215 53.69733428955078 0.5 62 0.5 C 70.30266571044922 0.5 78.35671997070312 2.125983238220215 85.93841552734375 5.332766532897949 C 89.58243560791016 6.874066829681396 93.09712982177734 8.781783103942871 96.38488006591797 11.00293350219727 C 99.64151763916016 13.20308303833008 102.7039337158203 15.72981643676758 105.4870681762695 18.5129337310791 C 108.2701797485352 21.29606628417969 110.7969131469727 24.35848426818848 112.9970703125 27.61511611938477 C 115.2182159423828 30.90286636352539 117.1259307861328 34.41756820678711 118.667236328125 38.06158447265625 C 121.8740158081055 45.64328384399414 123.5 53.69733428955078 123.5 62 C 123.5 70.30266571044922 121.8740158081055 78.35671997070312 118.667236328125 85.93841552734375 C 117.1259307861328 89.58243560791016 115.2182159423828 93.09712982177734 112.9970703125 96.38488006591797 C 110.7969131469727 99.64151763916016 108.2701797485352 102.7039337158203 105.4870681762695 105.4870681762695 C 102.7039337158203 108.2701797485352 99.64151763916016 110.7969131469727 96.38488006591797 112.9970703125 C 93.09712982177734 115.2182159423828 89.58243560791016 117.1259307861328 85.93841552734375 118.667236328125 C 78.35671997070312 121.8740158081055 70.30266571044922 123.5 62 123.5 Z" stroke="none"/>
      <path d="M 62 1 C 53.76461791992188 1 45.77610015869141 2.612686157226562 38.25634765625 5.793266296386719 C 34.64206695556641 7.321983337402344 31.15601348876953 9.214164733886719 27.89501953125 11.41725158691406 C 24.66474914550781 13.59958648681641 21.62711334228516 16.10586547851562 18.86648559570312 18.86648559570312 C 16.10586547851562 21.62711334228516 13.59958648681641 24.66474914550781 11.41725158691406 27.89501953125 C 9.214164733886719 31.15601348876953 7.321983337402344 34.64206695556641 5.793266296386719 38.25634765625 C 2.612686157226562 45.77610015869141 1 53.76461791992188 1 62 C 1 70.23538208007812 2.612686157226562 78.22389984130859 5.793266296386719 85.74365234375 C 7.321983337402344 89.35793304443359 9.214164733886719 92.84397888183594 11.41725158691406 96.10498046875 C 13.59958648681641 99.33525085449219 16.10586547851562 102.3728790283203 18.86648559570312 105.1335144042969 C 21.62711334228516 107.8941345214844 24.66474914550781 110.4004135131836 27.89501953125 112.5827484130859 C 31.15601348876953 114.7858352661133 34.64206695556641 116.6780166625977 38.25634765625 118.2067337036133 C 45.77610015869141 121.3873138427734 53.76461791992188 123 62 123 C 70.23538208007812 123 78.22389984130859 121.3873138427734 85.74365234375 118.2067337036133 C 89.35793304443359 116.6780166625977 92.84397888183594 114.7858352661133 96.10498046875 112.5827484130859 C 99.33525085449219 110.4004135131836 102.3728790283203 107.8941345214844 105.1335144042969 105.1335144042969 C 107.8941345214844 102.3728790283203 110.4004135131836 99.33525085449219 112.5827484130859 96.10498046875 C 114.7858352661133 92.84397888183594 116.6780166625977 89.35793304443359 118.2067337036133 85.74365234375 C 121.3873138427734 78.22389984130859 123 70.23538208007812 123 62 C 123 53.76461791992188 121.3873138427734 45.77610015869141 118.2067337036133 38.25634765625 C 116.6780166625977 34.64206695556641 114.7858352661133 31.15601348876953 112.5827484130859 27.89501953125 C 110.4004135131836 24.66474914550781 107.8941345214844 21.62711334228516 105.1335144042969 18.86648559570312 C 102.3728790283203 16.10586547851562 99.33525085449219 13.59958648681641 96.10498046875 11.41725158691406 C 92.84397888183594 9.214164733886719 89.35793304443359 7.321983337402344 85.74365234375 5.793266296386719 C 78.22389984130859 2.612686157226562 70.23538208007812 1 62 1 M 62 0 C 96.24165344238281 0 124 27.75834655761719 124 62 C 124 96.24165344238281 96.24165344238281 124 62 124 C 27.75834655761719 124 0 96.24165344238281 0 62 C 0 27.75834655761719 27.75834655761719 0 62 0 Z" stroke="none" fill="#707070"/>
    </g>
    <g id="Group_9690" data-name="Group 9690" transform="matrix(0.985, -0.174, 0.174, 0.985, -93.441, 4983.637)">
      <g id="Group_7274" data-name="Group 7274" transform="translate(1851.461 -879.146)">
        <g id="music_1_" data-name="music(1)" transform="translate(0 0)">
          <g id="_x31_3_music" transform="translate(0.813 0.813)">
            <path id="Path_17946" data-name="Path 17946" d="M42.078,7.5A24.585,24.585,0,1,0,66.663,32.085,24.585,24.585,0,0,0,42.078,7.5Zm0,30.317a5.732,5.732,0,1,1,5.732-5.732A5.739,5.739,0,0,1,42.078,37.817Z" transform="translate(-17.493 -7.5)" fill="#de7c4f"/>
            <path id="Path_17947" data-name="Path 17947" d="M143.82,121.607a12.219,12.219,0,1,0,8.391,21.093v-4.543a.724.724,0,0,1,.551-.7l2.928-.723a12.221,12.221,0,0,0-11.869-15.124Zm0,17.951a5.732,5.732,0,1,1,5.732-5.732A5.739,5.739,0,0,1,143.82,139.558Z" transform="translate(-119.235 -109.241)" fill="#ffcf8d"/>
            <g id="Group_7270" data-name="Group 7270" transform="translate(22.498)">
              <path id="Path_17948" data-name="Path 17948" d="M227.177,7.5c-.7,0-1.4.031-2.087.089a24.585,24.585,0,0,1,0,48.992c.688.058,1.384.089,2.087.089a24.585,24.585,0,1,0,0-49.17Z" transform="translate(-225.09 -7.5)" fill="#465a61"/>
            </g>
            <ellipse id="Ellipse_329" data-name="Ellipse 329" cx="5.166" cy="3.378" rx="5.166" ry="3.378" transform="matrix(0.906, -0.423, 0.423, 0.906, 40.691, 45.068)" fill="#6eb9eb"/>
            <path id="Path_17949" data-name="Path 17949" d="M284.253,229.024a.724.724,0,0,0-.9-.7l-17.268,4.263a.724.724,0,0,0-.551.7v7.134h0v10.305a6.948,6.948,0,0,0-3.367.685c-2.586,1.206-4.043,3.554-3.254,5.244s3.523,2.084,6.109.878c2.114-.986,3.473-2.735,3.467-4.264h0V239.691l15.761-3.891v-6.776Z" transform="translate(-232.56 -204.37)" fill="#6eb9eb"/>
            <g id="Group_7271" data-name="Group 7271" transform="translate(43.848 23.928)">
              <path id="Path_17950" data-name="Path 17950" d="M465.385,397.081h0Z" transform="translate(-460.694 -378.79)" fill="#53d8d8"/>
              <path id="Path_17951" data-name="Path 17951" d="M429.05,228.32l-2.058.508v17.695h0v2.422h0c.079,1.557-1.294,3.372-3.464,4.384a7.728,7.728,0,0,1-1.42.5,6.331,6.331,0,0,0,4.375-.5c2.124-.99,3.486-2.752,3.467-4.286h0V229.024A.725.725,0,0,0,429.05,228.32Z" transform="translate(-422.104 -228.299)" fill="#33556b"/>
            </g>
          </g>
          <g id="Group_7272" data-name="Group 7272">
            <path id="Path_17952" data-name="Path 17952" d="M190.5,173.964a6.545,6.545,0,1,0,6.545,6.545A6.552,6.552,0,0,0,190.5,173.964Zm0,11.464a4.919,4.919,0,1,1,4.919-4.919A4.925,4.925,0,0,1,190.5,185.428Z" transform="translate(-165.102 -155.111)"/>
            <path id="Path_17953" data-name="Path 17953" d="M63.309,45.489s0,0,0,0V27.909a.813.813,0,0,0-1.626,0v3.7L44.592,35.825V29.8L61.759,25.56a.813.813,0,0,0-.39-1.578l-.618.152A25.4,25.4,0,1,0,15.395,41.062a.813.813,0,1,0,1.279-1,23.772,23.772,0,1,1,42.47-15.527L48.293,27.21a13.044,13.044,0,1,0-5.326,8.784v.869s0,0,0,0v9.487a8.361,8.361,0,0,0-5.561,2.731A23.683,23.683,0,0,1,19.15,42.759a.813.813,0,0,0-1.11,1.187,25.277,25.277,0,0,0,18.339,6.829,3.4,3.4,0,0,0,.042,2.665c1.019,2.186,4.262,2.636,7.189,1.271,2.486-1.159,4.009-3.229,3.938-5.11V47.7a25.542,25.542,0,0,0,11.18-12.276v6.808a8.124,8.124,0,0,0-2.9.762c-3.038,1.417-4.64,4.195-3.647,6.324S56.333,52,59.372,50.586c2.426-1.132,4-3.2,3.937-5.1Zm-2.943-3.15-.012,0V33.608l1.33-.328v9.549A4.432,4.432,0,0,0,60.366,42.338ZM45.923,37.171v9.541c-.079.039-.157.079-.236.117a4.672,4.672,0,0,0-1.094-.367V37.5ZM35.389,36.8a11.4,11.4,0,1,1,11.185-9.17l-2.438.6a1.553,1.553,0,0,0-1.169,1.492v4.186A11.35,11.35,0,0,1,35.389,36.8Zm7.535,16.434c-2.195,1.024-4.462.732-5.029-.485-.528-1.132.5-2.843,2.348-3.9l.006,0c2.69-1.532,5.667-.965,5.673.862,0,.014,0,.028,0,.042C45.908,50.948,44.7,52.408,42.923,53.238Zm4.625-7.412V36.769l9.876-2.438A23.906,23.906,0,0,1,47.548,45.826Zm11.137,3.287c-2.139,1-4.441.775-5.029-.485s.723-3.167,2.861-4.164c2.493-1.163,5.091-.635,5.164,1.056,0,.008,0,.016,0,.024.034,1.121-1.048,2.66-3,3.57Z" transform="translate(-9.991 0)"/>
          </g>
        </g>
      </g>
      <path id="Path_17954" data-name="Path 17954" d="M1305.938-892.136s-11.215-21,12.885-32.928" transform="translate(551.909 49.976)" fill="none" stroke="#000" stroke-width="1"/>
    </g>
  </g>
</svg>
