<svg xmlns="http://www.w3.org/2000/svg" width="124" height="124" viewBox="0 0 124 124">
  <g id="Group_11010" data-name="Group 11010" transform="translate(-1306 -2541)">
    <g id="Path_69240" data-name="Path 69240" transform="translate(1306 2541)" fill="#363535">
      <path d="M 62 123.5 C 53.69733428955078 123.5 45.64328384399414 121.8740158081055 38.06158447265625 118.667236328125 C 34.41756820678711 117.1259307861328 30.90286636352539 115.2182159423828 27.61511611938477 112.9970703125 C 24.35848426818848 110.7969131469727 21.29606628417969 108.2701797485352 18.5129337310791 105.4870681762695 C 15.72981643676758 102.7039337158203 13.20308303833008 99.64151763916016 11.00293350219727 96.38488006591797 C 8.781783103942871 93.09712982177734 6.874066829681396 89.58243560791016 5.332766532897949 85.93841552734375 C 2.125983238220215 78.35671997070312 0.5 70.30266571044922 0.5 62 C 0.5 53.69733428955078 2.125983238220215 45.64328384399414 5.332766532897949 38.06158447265625 C 6.874066829681396 34.41756820678711 8.781783103942871 30.90286636352539 11.00293350219727 27.61511611938477 C 13.20308303833008 24.35848426818848 15.72981643676758 21.29606628417969 18.5129337310791 18.5129337310791 C 21.29606628417969 15.72981643676758 24.35848426818848 13.20308303833008 27.61511611938477 11.00293350219727 C 30.90286636352539 8.781783103942871 34.41756820678711 6.874066829681396 38.06158447265625 5.332766532897949 C 45.64328384399414 2.125983238220215 53.69733428955078 0.5 62 0.5 C 70.30266571044922 0.5 78.35671997070312 2.125983238220215 85.93841552734375 5.332766532897949 C 89.58243560791016 6.874066829681396 93.09712982177734 8.781783103942871 96.38488006591797 11.00293350219727 C 99.64151763916016 13.20308303833008 102.7039337158203 15.72981643676758 105.4870681762695 18.5129337310791 C 108.2701797485352 21.29606628417969 110.7969131469727 24.35848426818848 112.9970703125 27.61511611938477 C 115.2182159423828 30.90286636352539 117.1259307861328 34.41756820678711 118.667236328125 38.06158447265625 C 121.8740158081055 45.64328384399414 123.5 53.69733428955078 123.5 62 C 123.5 70.30266571044922 121.8740158081055 78.35671997070312 118.667236328125 85.93841552734375 C 117.1259307861328 89.58243560791016 115.2182159423828 93.09712982177734 112.9970703125 96.38488006591797 C 110.7969131469727 99.64151763916016 108.2701797485352 102.7039337158203 105.4870681762695 105.4870681762695 C 102.7039337158203 108.2701797485352 99.64151763916016 110.7969131469727 96.38488006591797 112.9970703125 C 93.09712982177734 115.2182159423828 89.58243560791016 117.1259307861328 85.93841552734375 118.667236328125 C 78.35671997070312 121.8740158081055 70.30266571044922 123.5 62 123.5 Z" stroke="none"/>
      <path d="M 62 1 C 53.76461791992188 1 45.77610015869141 2.612686157226562 38.25634765625 5.793266296386719 C 34.64206695556641 7.321983337402344 31.15601348876953 9.214164733886719 27.89501953125 11.41725158691406 C 24.66474914550781 13.59958648681641 21.62711334228516 16.10586547851562 18.86648559570312 18.86648559570312 C 16.10586547851562 21.62711334228516 13.59958648681641 24.66474914550781 11.41725158691406 27.89501953125 C 9.214164733886719 31.15601348876953 7.321983337402344 34.64206695556641 5.793266296386719 38.25634765625 C 2.612686157226562 45.77610015869141 1 53.76461791992188 1 62 C 1 70.23538208007812 2.612686157226562 78.22389984130859 5.793266296386719 85.74365234375 C 7.321983337402344 89.35793304443359 9.214164733886719 92.84397888183594 11.41725158691406 96.10498046875 C 13.59958648681641 99.33525085449219 16.10586547851562 102.3728790283203 18.86648559570312 105.1335144042969 C 21.62711334228516 107.8941345214844 24.66474914550781 110.4004135131836 27.89501953125 112.5827484130859 C 31.15601348876953 114.7858352661133 34.64206695556641 116.6780166625977 38.25634765625 118.2067337036133 C 45.77610015869141 121.3873138427734 53.76461791992188 123 62 123 C 70.23538208007812 123 78.22389984130859 121.3873138427734 85.74365234375 118.2067337036133 C 89.35793304443359 116.6780166625977 92.84397888183594 114.7858352661133 96.10498046875 112.5827484130859 C 99.33525085449219 110.4004135131836 102.3728790283203 107.8941345214844 105.1335144042969 105.1335144042969 C 107.8941345214844 102.3728790283203 110.4004135131836 99.33525085449219 112.5827484130859 96.10498046875 C 114.7858352661133 92.84397888183594 116.6780166625977 89.35793304443359 118.2067337036133 85.74365234375 C 121.3873138427734 78.22389984130859 123 70.23538208007812 123 62 C 123 53.76461791992188 121.3873138427734 45.77610015869141 118.2067337036133 38.25634765625 C 116.6780166625977 34.64206695556641 114.7858352661133 31.15601348876953 112.5827484130859 27.89501953125 C 110.4004135131836 24.66474914550781 107.8941345214844 21.62711334228516 105.1335144042969 18.86648559570312 C 102.3728790283203 16.10586547851562 99.33525085449219 13.59958648681641 96.10498046875 11.41725158691406 C 92.84397888183594 9.214164733886719 89.35793304443359 7.321983337402344 85.74365234375 5.793266296386719 C 78.22389984130859 2.612686157226562 70.23538208007812 1 62 1 M 62 0 C 96.24165344238281 0 124 27.75834655761719 124 62 C 124 96.24165344238281 96.24165344238281 124 62 124 C 27.75834655761719 124 0 96.24165344238281 0 62 C 0 27.75834655761719 27.75834655761719 0 62 0 Z" stroke="none" fill="#707070"/>
    </g>
    <g id="equalizer_2_" data-name="equalizer (2)" transform="translate(1344 2579)">
      <rect id="Rectangle_6599" data-name="Rectangle 6599" width="52" height="52" fill="rgba(255,255,255,0.01)"/>
      <path id="Path_74664" data-name="Path 74664" d="M11,16V46" transform="translate(0.917)" fill="none" stroke="#fafafa" stroke-linecap="round" stroke-linejoin="round" stroke-width="4"/>
      <path id="Path_74665" data-name="Path 74665" d="M24,29V42" transform="translate(2 4)" fill="none" stroke="#fafafa" stroke-linecap="round" stroke-linejoin="round" stroke-width="4"/>
      <path id="Path_74666" data-name="Path 74666" d="M24,19V6" transform="translate(2)" fill="none" stroke="#fafafa" stroke-linecap="round" stroke-linejoin="round" stroke-width="4"/>
      <path id="Path_74667" data-name="Path 74667" d="M37,6V39.5" transform="translate(3.083)" fill="none" stroke="#fafafa" stroke-linecap="round" stroke-linejoin="round" stroke-width="4"/>
      <path id="Path_74668" data-name="Path 74668" d="M11,16a5,5,0,1,0-5-5A5,5,0,0,0,11,16Z" transform="translate(1)" fill="#2f88ff" stroke="#fafafa" stroke-linejoin="round" stroke-width="4"/>
      <path id="Path_74669" data-name="Path 74669" d="M24,29a5,5,0,1,0-5-5A5,5,0,0,0,24,29Z" transform="translate(2 2)" fill="#2f88ff" stroke="#fafafa" stroke-linejoin="round" stroke-width="4"/>
      <path id="Path_74670" data-name="Path 74670" d="M37,42a5,5,0,1,0-5-5A5,5,0,0,0,37,42Z" transform="translate(3 4)" fill="#2f88ff" stroke="#fafafa" stroke-linejoin="round" stroke-width="4"/>
    </g>
  </g>
</svg>
